<?xml version="1.0" encoding="utf-8"?>
<!-- Generator: Adobe Illustrator 23.0.1, SVG Export Plug-In . SVG Version: 6.00 Build 0)  -->
<svg version="1.1" id="Layer_1" xmlns="http://www.w3.org/2000/svg" xmlns:xlink="http://www.w3.org/1999/xlink" x="0px" y="0px"
	 viewBox="0 0 395 395" style="enable-background:new 0 0 395 395;" xml:space="preserve">
<style type="text/css">
	.st0{clip-path:url(#SVGID_2_);fill:none;}
	.st1{clip-path:url(#SVGID_2_);fill:#35074D;}
	.st2{clip-path:url(#SVGID_2_);fill:#3F1053;}
	.st3{clip-path:url(#SVGID_2_);fill:#4E1A58;}
	.st4{clip-path:url(#SVGID_2_);fill:#7E406A;}
	.st5{clip-path:url(#SVGID_2_);fill:#37094E;}
	.st6{clip-path:url(#SVGID_2_);fill:#3F0F52;}
	.st7{clip-path:url(#SVGID_2_);fill:#531D59;}
	.st8{clip-path:url(#SVGID_2_);fill:#662C61;}
	.st9{clip-path:url(#SVGID_2_);fill:#84436B;}
	.st10{clip-path:url(#SVGID_2_);fill:#9D5D74;}
	.st11{clip-path:url(#SVGID_2_);fill:#B77B7D;}
	.st12{clip-path:url(#SVGID_2_);fill:#CA9885;}
	.st13{clip-path:url(#SVGID_2_);fill:#DDB48D;}
	.st14{clip-path:url(#SVGID_2_);fill:#ECD198;}
	.st15{clip-path:url(#SVGID_2_);fill:#F0DA9A;}
	.st16{clip-path:url(#SVGID_2_);fill:#F8EFA6;}
	.st17{clip-path:url(#SVGID_2_);fill:#3A0B4E;}
	.st18{clip-path:url(#SVGID_2_);fill:#431152;}
	.st19{clip-path:url(#SVGID_2_);fill:#581F5A;}
	.st20{clip-path:url(#SVGID_2_);fill:#6D2F62;}
	.st21{clip-path:url(#SVGID_2_);fill:#8C456B;}
	.st22{clip-path:url(#SVGID_2_);fill:#A15C73;}
	.st23{clip-path:url(#SVGID_2_);fill:#BD797D;}
	.st24{clip-path:url(#SVGID_2_);fill:#CE9886;}
	.st25{clip-path:url(#SVGID_2_);fill:#E0B08C;}
	.st26{clip-path:url(#SVGID_2_);fill:#E8C794;}
	.st27{clip-path:url(#SVGID_2_);fill:#F1D799;}
	.st28{clip-path:url(#SVGID_2_);fill:#F5E5A0;}
	.st29{clip-path:url(#SVGID_2_);fill:#F9EDA5;}
	.st30{clip-path:url(#SVGID_2_);fill:#FBF4AA;}
	.st31{clip-path:url(#SVGID_2_);fill:#FDF8AF;}
	.st32{clip-path:url(#SVGID_2_);fill:#FEFBB2;}
	.st33{clip-path:url(#SVGID_2_);fill:#FEFCB5;}
	.st34{clip-path:url(#SVGID_2_);fill:#35074C;}
	.st35{clip-path:url(#SVGID_2_);fill:#3C0C4E;}
	.st36{clip-path:url(#SVGID_2_);fill:#471453;}
	.st37{clip-path:url(#SVGID_2_);fill:#5E225B;}
	.st38{clip-path:url(#SVGID_2_);fill:#733162;}
	.st39{clip-path:url(#SVGID_2_);fill:#8F456B;}
	.st40{clip-path:url(#SVGID_2_);fill:#A75C74;}
	.st41{clip-path:url(#SVGID_2_);fill:#C2787C;}
	.st42{clip-path:url(#SVGID_2_);fill:#D39485;}
	.st43{clip-path:url(#SVGID_2_);fill:#E2A98B;}
	.st44{clip-path:url(#SVGID_2_);fill:#EAC192;}
	.st45{clip-path:url(#SVGID_2_);fill:#F2D098;}
	.st46{clip-path:url(#SVGID_2_);fill:#F6E09E;}
	.st47{clip-path:url(#SVGID_2_);fill:#F9E8A2;}
	.st48{clip-path:url(#SVGID_2_);fill:#FBF2A8;}
	.st49{clip-path:url(#SVGID_2_);fill:#FDF5AD;}
	.st50{clip-path:url(#SVGID_2_);fill:#FEFAB1;}
	.st51{clip-path:url(#SVGID_2_);fill:#FEFAB2;}
	.st52{clip-path:url(#SVGID_2_);fill:#38084C;}
	.st53{clip-path:url(#SVGID_2_);fill:#3F0D4E;}
	.st54{clip-path:url(#SVGID_2_);fill:#4C1654;}
	.st55{clip-path:url(#SVGID_2_);fill:#64245C;}
	.st56{clip-path:url(#SVGID_2_);fill:#7A3363;}
	.st57{clip-path:url(#SVGID_2_);fill:#97466B;}
	.st58{clip-path:url(#SVGID_2_);fill:#AD5D73;}
	.st59{clip-path:url(#SVGID_2_);fill:#C7757C;}
	.st60{clip-path:url(#SVGID_2_);fill:#D69184;}
	.st61{clip-path:url(#SVGID_2_);fill:#E4A289;}
	.st62{clip-path:url(#SVGID_2_);fill:#ECBB91;}
	.st63{clip-path:url(#SVGID_2_);fill:#F3C997;}
	.st64{clip-path:url(#SVGID_2_);fill:#F6DA9C;}
	.st65{clip-path:url(#SVGID_2_);fill:#FAE2A0;}
	.st66{clip-path:url(#SVGID_2_);fill:#FBEDA7;}
	.st67{clip-path:url(#SVGID_2_);fill:#FDF1AA;}
	.st68{clip-path:url(#SVGID_2_);fill:#FEF7AF;}
	.st69{clip-path:url(#SVGID_2_);fill:#FFF7B0;}
	.st70{clip-path:url(#SVGID_2_);fill:#3A0A4D;}
	.st71{clip-path:url(#SVGID_2_);fill:#430F4F;}
	.st72{clip-path:url(#SVGID_2_);fill:#511854;}
	.st73{clip-path:url(#SVGID_2_);fill:#6B265C;}
	.st74{clip-path:url(#SVGID_2_);fill:#813563;}
	.st75{clip-path:url(#SVGID_2_);fill:#9D476C;}
	.st76{clip-path:url(#SVGID_2_);fill:#B45C74;}
	.st77{clip-path:url(#SVGID_2_);fill:#CC727B;}
	.st78{clip-path:url(#SVGID_2_);fill:#DA8C83;}
	.st79{clip-path:url(#SVGID_2_);fill:#E69C88;}
	.st80{clip-path:url(#SVGID_2_);fill:#EEB38F;}
	.st81{clip-path:url(#SVGID_2_);fill:#F4C095;}
	.st82{clip-path:url(#SVGID_2_);fill:#F7D39A;}
	.st83{clip-path:url(#SVGID_2_);fill:#FADB9E;}
	.st84{clip-path:url(#SVGID_2_);fill:#FCE8A4;}
	.st85{clip-path:url(#SVGID_2_);fill:#FDECA7;}
	.st86{clip-path:url(#SVGID_2_);fill:#FEF3AD;}
	.st87{clip-path:url(#SVGID_2_);fill:#FFF3AE;}
	.st88{clip-path:url(#SVGID_2_);fill:#3D0C4D;}
	.st89{clip-path:url(#SVGID_2_);fill:#49114F;}
	.st90{clip-path:url(#SVGID_2_);fill:#571A55;}
	.st91{clip-path:url(#SVGID_2_);fill:#71275C;}
	.st92{clip-path:url(#SVGID_2_);fill:#863463;}
	.st93{clip-path:url(#SVGID_2_);fill:#A3466B;}
	.st94{clip-path:url(#SVGID_2_);fill:#B95B73;}
	.st95{clip-path:url(#SVGID_2_);fill:#D0707B;}
	.st96{clip-path:url(#SVGID_2_);fill:#DC8682;}
	.st97{clip-path:url(#SVGID_2_);fill:#E99788;}
	.st98{clip-path:url(#SVGID_2_);fill:#EFAC8E;}
	.st99{clip-path:url(#SVGID_2_);fill:#F5B992;}
	.st100{clip-path:url(#SVGID_2_);fill:#F8CA98;}
	.st101{clip-path:url(#SVGID_2_);fill:#FAD39B;}
	.st102{clip-path:url(#SVGID_2_);fill:#FCE1A1;}
	.st103{clip-path:url(#SVGID_2_);fill:#FEE6A5;}
	.st104{clip-path:url(#SVGID_2_);fill:#FEEEA9;}
	.st105{clip-path:url(#SVGID_2_);fill:#FFEEAA;}
	.st106{clip-path:url(#SVGID_2_);fill:#410D4D;}
	.st107{clip-path:url(#SVGID_2_);fill:#4D1350;}
	.st108{clip-path:url(#SVGID_2_);fill:#5D1C56;}
	.st109{clip-path:url(#SVGID_2_);fill:#76275C;}
	.st110{clip-path:url(#SVGID_2_);fill:#8C3563;}
	.st111{clip-path:url(#SVGID_2_);fill:#AA466C;}
	.st112{clip-path:url(#SVGID_2_);fill:#BF5A73;}
	.st113{clip-path:url(#SVGID_2_);fill:#D36B7A;}
	.st114{clip-path:url(#SVGID_2_);fill:#E08181;}
	.st115{clip-path:url(#SVGID_2_);fill:#EB9186;}
	.st116{clip-path:url(#SVGID_2_);fill:#F1A78C;}
	.st117{clip-path:url(#SVGID_2_);fill:#F5B090;}
	.st118{clip-path:url(#SVGID_2_);fill:#F8C396;}
	.st119{clip-path:url(#SVGID_2_);fill:#FBCB99;}
	.st120{clip-path:url(#SVGID_2_);fill:#FCDA9F;}
	.st121{clip-path:url(#SVGID_2_);fill:#FEDDA1;}
	.st122{clip-path:url(#SVGID_2_);fill:#FEE7A7;}
	.st123{clip-path:url(#SVGID_2_);fill:#3D0C4A;}
	.st124{clip-path:url(#SVGID_2_);fill:#440F4D;}
	.st125{clip-path:url(#SVGID_2_);fill:#521551;}
	.st126{clip-path:url(#SVGID_2_);fill:#631E56;}
	.st127{clip-path:url(#SVGID_2_);fill:#7C285C;}
	.st128{clip-path:url(#SVGID_2_);fill:#933663;}
	.st129{clip-path:url(#SVGID_2_);fill:#B0456B;}
	.st130{clip-path:url(#SVGID_2_);fill:#C45872;}
	.st131{clip-path:url(#SVGID_2_);fill:#D66779;}
	.st132{clip-path:url(#SVGID_2_);fill:#E27C7F;}
	.st133{clip-path:url(#SVGID_2_);fill:#ED8985;}
	.st134{clip-path:url(#SVGID_2_);fill:#F29E8B;}
	.st135{clip-path:url(#SVGID_2_);fill:#F6A78E;}
	.st136{clip-path:url(#SVGID_2_);fill:#F9B994;}
	.st137{clip-path:url(#SVGID_2_);fill:#FBC197;}
	.st138{clip-path:url(#SVGID_2_);fill:#FDD09D;}
	.st139{clip-path:url(#SVGID_2_);fill:#FED49F;}
	.st140{clip-path:url(#SVGID_2_);fill:#FEDFA3;}
	.st141{clip-path:url(#SVGID_2_);fill:#420D4A;}
	.st142{clip-path:url(#SVGID_2_);fill:#47104D;}
	.st143{clip-path:url(#SVGID_2_);fill:#581751;}
	.st144{clip-path:url(#SVGID_2_);fill:#691F57;}
	.st145{clip-path:url(#SVGID_2_);fill:#83295D;}
	.st146{clip-path:url(#SVGID_2_);fill:#9A3664;}
	.st147{clip-path:url(#SVGID_2_);fill:#B6446B;}
	.st148{clip-path:url(#SVGID_2_);fill:#C95572;}
	.st149{clip-path:url(#SVGID_2_);fill:#DA6278;}
	.st150{clip-path:url(#SVGID_2_);fill:#E5757E;}
	.st151{clip-path:url(#SVGID_2_);fill:#EE8284;}
	.st152{clip-path:url(#SVGID_2_);fill:#F39589;}
	.st153{clip-path:url(#SVGID_2_);fill:#F79C8C;}
	.st154{clip-path:url(#SVGID_2_);fill:#F9AF92;}
	.st155{clip-path:url(#SVGID_2_);fill:#FCB596;}
	.st156{clip-path:url(#SVGID_2_);fill:#FDC699;}
	.st157{clip-path:url(#SVGID_2_);fill:#FEC99C;}
	.st158{clip-path:url(#SVGID_2_);fill:#FED5A0;}
	.st159{clip-path:url(#SVGID_2_);fill:#450F4B;}
	.st160{clip-path:url(#SVGID_2_);fill:#49114D;}
	.st161{clip-path:url(#SVGID_2_);fill:#5C1951;}
	.st162{clip-path:url(#SVGID_2_);fill:#6D2056;}
	.st163{clip-path:url(#SVGID_2_);fill:#892A5D;}
	.st164{clip-path:url(#SVGID_2_);fill:#A03664;}
	.st165{clip-path:url(#SVGID_2_);fill:#BC436B;}
	.st166{clip-path:url(#SVGID_2_);fill:#CC5071;}
	.st167{clip-path:url(#SVGID_2_);fill:#DD5D77;}
	.st168{clip-path:url(#SVGID_2_);fill:#E76E7D;}
	.st169{clip-path:url(#SVGID_2_);fill:#F07A82;}
	.st170{clip-path:url(#SVGID_2_);fill:#F48A87;}
	.st171{clip-path:url(#SVGID_2_);fill:#F8928A;}
	.st172{clip-path:url(#SVGID_2_);fill:#FAA48F;}
	.st173{clip-path:url(#SVGID_2_);fill:#FCAA93;}
	.st174{clip-path:url(#SVGID_2_);fill:#FDBA97;}
	.st175{clip-path:url(#SVGID_2_);fill:#FEBD99;}
	.st176{clip-path:url(#SVGID_2_);fill:#FFC99D;}
	.st177{clip-path:url(#SVGID_2_);fill:#48104C;}
	.st178{clip-path:url(#SVGID_2_);fill:#4E134D;}
	.st179{clip-path:url(#SVGID_2_);fill:#601A52;}
	.st180{clip-path:url(#SVGID_2_);fill:#742157;}
	.st181{clip-path:url(#SVGID_2_);fill:#902A5D;}
	.st182{clip-path:url(#SVGID_2_);fill:#A63564;}
	.st183{clip-path:url(#SVGID_2_);fill:#BF406A;}
	.st184{clip-path:url(#SVGID_2_);fill:#D04D70;}
	.st185{clip-path:url(#SVGID_2_);fill:#E15875;}
	.st186{clip-path:url(#SVGID_2_);fill:#E9687C;}
	.st187{clip-path:url(#SVGID_2_);fill:#F0707F;}
	.st188{clip-path:url(#SVGID_2_);fill:#F58185;}
	.st189{clip-path:url(#SVGID_2_);fill:#F88788;}
	.st190{clip-path:url(#SVGID_2_);fill:#FA998D;}
	.st191{clip-path:url(#SVGID_2_);fill:#FC9C8F;}
	.st192{clip-path:url(#SVGID_2_);fill:#FDAD95;}
	.st193{clip-path:url(#SVGID_2_);fill:#FEAF97;}
	.st194{clip-path:url(#SVGID_2_);fill:#FFBB99;}
	.st195{clip-path:url(#SVGID_2_);fill:#4B124C;}
	.st196{clip-path:url(#SVGID_2_);fill:#53154D;}
	.st197{clip-path:url(#SVGID_2_);fill:#661B52;}
	.st198{clip-path:url(#SVGID_2_);fill:#7A2257;}
	.st199{clip-path:url(#SVGID_2_);fill:#972A5D;}
	.st200{clip-path:url(#SVGID_2_);fill:#AD3463;}
	.st201{clip-path:url(#SVGID_2_);fill:#C43E69;}
	.st202{clip-path:url(#SVGID_2_);fill:#D44A6F;}
	.st203{clip-path:url(#SVGID_2_);fill:#E35374;}
	.st204{clip-path:url(#SVGID_2_);fill:#EB617A;}
	.st205{clip-path:url(#SVGID_2_);fill:#F2687D;}
	.st206{clip-path:url(#SVGID_2_);fill:#F57783;}
	.st207{clip-path:url(#SVGID_2_);fill:#F97C86;}
	.st208{clip-path:url(#SVGID_2_);fill:#FB8D8B;}
	.st209{clip-path:url(#SVGID_2_);fill:#FD908D;}
	.st210{clip-path:url(#SVGID_2_);fill:#FDA092;}
	.st211{clip-path:url(#SVGID_2_);fill:#FEA193;}
	.st212{clip-path:url(#SVGID_2_);fill:#FFAE97;}
	.st213{clip-path:url(#SVGID_2_);fill:#4F134C;}
	.st214{clip-path:url(#SVGID_2_);fill:#57164E;}
	.st215{clip-path:url(#SVGID_2_);fill:#6D1C52;}
	.st216{clip-path:url(#SVGID_2_);fill:#812257;}
	.st217{clip-path:url(#SVGID_2_);fill:#9D2A5D;}
	.st218{clip-path:url(#SVGID_2_);fill:#B33363;}
	.st219{clip-path:url(#SVGID_2_);fill:#C93B69;}
	.st220{clip-path:url(#SVGID_2_);fill:#D8466E;}
	.st221{clip-path:url(#SVGID_2_);fill:#E64D73;}
	.st222{clip-path:url(#SVGID_2_);fill:#ED5A79;}
	.st223{clip-path:url(#SVGID_2_);fill:#F35F7C;}
	.st224{clip-path:url(#SVGID_2_);fill:#F66D81;}
	.st225{clip-path:url(#SVGID_2_);fill:#F97184;}
	.st226{clip-path:url(#SVGID_2_);fill:#FB8088;}
	.st227{clip-path:url(#SVGID_2_);fill:#FD828A;}
	.st228{clip-path:url(#SVGID_2_);fill:#FE928F;}
	.st229{clip-path:url(#SVGID_2_);fill:#FE918F;}
	.st230{clip-path:url(#SVGID_2_);fill:#FF9E94;}
	.st231{clip-path:url(#SVGID_2_);fill:#471149;}
	.st232{clip-path:url(#SVGID_2_);fill:#52154C;}
	.st233{clip-path:url(#SVGID_2_);fill:#5C174E;}
	.st234{clip-path:url(#SVGID_2_);fill:#731D52;}
	.st235{clip-path:url(#SVGID_2_);fill:#872258;}
	.st236{clip-path:url(#SVGID_2_);fill:#A4295D;}
	.st237{clip-path:url(#SVGID_2_);fill:#B63162;}
	.st238{clip-path:url(#SVGID_2_);fill:#CD3868;}
	.st239{clip-path:url(#SVGID_2_);fill:#DB426D;}
	.st240{clip-path:url(#SVGID_2_);fill:#E84772;}
	.st241{clip-path:url(#SVGID_2_);fill:#EE5276;}
	.st242{clip-path:url(#SVGID_2_);fill:#F4577A;}
	.st243{clip-path:url(#SVGID_2_);fill:#F7637E;}
	.st244{clip-path:url(#SVGID_2_);fill:#FA6682;}
	.st245{clip-path:url(#SVGID_2_);fill:#FB7486;}
	.st246{clip-path:url(#SVGID_2_);fill:#FD7588;}
	.st247{clip-path:url(#SVGID_2_);fill:#FE848C;}
	.st248{clip-path:url(#SVGID_2_);fill:#FE828C;}
	.st249{clip-path:url(#SVGID_2_);fill:#4C144A;}
	.st250{clip-path:url(#SVGID_2_);fill:#54154B;}
	.st251{clip-path:url(#SVGID_2_);fill:#61184F;}
	.st252{clip-path:url(#SVGID_2_);fill:#791D52;}
	.st253{clip-path:url(#SVGID_2_);fill:#8E2258;}
	.st254{clip-path:url(#SVGID_2_);fill:#A8285C;}
	.st255{clip-path:url(#SVGID_2_);fill:#BC2F62;}
	.st256{clip-path:url(#SVGID_2_);fill:#D23567;}
	.st257{clip-path:url(#SVGID_2_);fill:#DE3E6C;}
	.st258{clip-path:url(#SVGID_2_);fill:#E94170;}
	.st259{clip-path:url(#SVGID_2_);fill:#F04B75;}
	.st260{clip-path:url(#SVGID_2_);fill:#F54E78;}
	.st261{clip-path:url(#SVGID_2_);fill:#F8597C;}
	.st262{clip-path:url(#SVGID_2_);fill:#FA5B7E;}
	.st263{clip-path:url(#SVGID_2_);fill:#FC6784;}
	.st264{clip-path:url(#SVGID_2_);fill:#FD6885;}
	.st265{clip-path:url(#SVGID_2_);fill:#FE7689;}
	.st266{clip-path:url(#SVGID_2_);fill:#FF7389;}
	.st267{clip-path:url(#SVGID_2_);fill:#4F1449;}
	.st268{clip-path:url(#SVGID_2_);fill:#58174C;}
	.st269{clip-path:url(#SVGID_2_);fill:#67194F;}
	.st270{clip-path:url(#SVGID_2_);fill:#7F1E53;}
	.st271{clip-path:url(#SVGID_2_);fill:#942258;}
	.st272{clip-path:url(#SVGID_2_);fill:#AE275C;}
	.st273{clip-path:url(#SVGID_2_);fill:#C22D61;}
	.st274{clip-path:url(#SVGID_2_);fill:#D63166;}
	.st275{clip-path:url(#SVGID_2_);fill:#E2396B;}
	.st276{clip-path:url(#SVGID_2_);fill:#EB3C6E;}
	.st277{clip-path:url(#SVGID_2_);fill:#F14573;}
	.st278{clip-path:url(#SVGID_2_);fill:#F64675;}
	.st279{clip-path:url(#SVGID_2_);fill:#F8507B;}
	.st280{clip-path:url(#SVGID_2_);fill:#FB517C;}
	.st281{clip-path:url(#SVGID_2_);fill:#FC5C80;}
	.st282{clip-path:url(#SVGID_2_);fill:#FD5C82;}
	.st283{clip-path:url(#SVGID_2_);fill:#FE6886;}
	.st284{clip-path:url(#SVGID_2_);fill:#FF6586;}
	.st285{clip-path:url(#SVGID_2_);fill:#53164A;}
	.st286{clip-path:url(#SVGID_2_);fill:#5D184C;}
	.st287{clip-path:url(#SVGID_2_);fill:#6D1A4F;}
	.st288{clip-path:url(#SVGID_2_);fill:#861E53;}
	.st289{clip-path:url(#SVGID_2_);fill:#9B2157;}
	.st290{clip-path:url(#SVGID_2_);fill:#B4255C;}
	.st291{clip-path:url(#SVGID_2_);fill:#C72B61;}
	.st292{clip-path:url(#SVGID_2_);fill:#D92E65;}
	.st293{clip-path:url(#SVGID_2_);fill:#E5356A;}
	.st294{clip-path:url(#SVGID_2_);fill:#ED366C;}
	.st295{clip-path:url(#SVGID_2_);fill:#F23E72;}
	.st296{clip-path:url(#SVGID_2_);fill:#F63F73;}
	.st297{clip-path:url(#SVGID_2_);fill:#F94778;}
	.st298{clip-path:url(#SVGID_2_);fill:#FB477A;}
	.st299{clip-path:url(#SVGID_2_);fill:#FC517E;}
	.st300{clip-path:url(#SVGID_2_);fill:#FE507F;}
	.st301{clip-path:url(#SVGID_2_);fill:#FE5B84;}
	.st302{clip-path:url(#SVGID_2_);fill:#FF5884;}
	.st303{clip-path:url(#SVGID_2_);fill:#57174B;}
	.st304{clip-path:url(#SVGID_2_);fill:#721A4F;}
	.st305{clip-path:url(#SVGID_2_);fill:#992057;}
	.st306{clip-path:url(#SVGID_2_);fill:#9F2057;}
	.st307{clip-path:url(#SVGID_2_);fill:#B9245C;}
	.st308{clip-path:url(#SVGID_2_);fill:#CB2860;}
	.st309{clip-path:url(#SVGID_2_);fill:#DD2B64;}
	.st310{clip-path:url(#SVGID_2_);fill:#E62F68;}
	.st311{clip-path:url(#SVGID_2_);fill:#EE316B;}
	.st312{clip-path:url(#SVGID_2_);fill:#F3376F;}
	.st313{clip-path:url(#SVGID_2_);fill:#F73872;}
	.st314{clip-path:url(#SVGID_2_);fill:#F93F75;}
	.st315{clip-path:url(#SVGID_2_);fill:#FB3F77;}
	.st316{clip-path:url(#SVGID_2_);fill:#FD477C;}
	.st317{clip-path:url(#SVGID_2_);fill:#FE457D;}
	.st318{clip-path:url(#SVGID_2_);fill:#FE4E7F;}
	.st319{clip-path:url(#SVGID_2_);fill:#FF4B7F;}
	.st320{clip-path:url(#SVGID_2_);fill:#E82E68;}
	.st321{clip-path:url(#SVGID_2_);fill:#F4336D;}
	.st322{clip-path:url(#SVGID_2_);fill:#F83571;}
	.st323{clip-path:url(#SVGID_2_);fill:#FA3873;}
	.st324{clip-path:url(#SVGID_2_);fill:#FC3975;}
	.st325{clip-path:url(#SVGID_2_);fill:#FD3E78;}
	.st326{clip-path:url(#SVGID_2_);fill:#FE3E7A;}
	.st327{clip-path:url(#SVGID_2_);fill:#FE437D;}
	.st328{clip-path:url(#SVGID_2_);fill:#FE3D7B;}
	.st329{fill:none;stroke:#FFFFFF;stroke-width:5.5;stroke-miterlimit:10;}
	.st330{fill:#FFFFFF;}
	.st331{font-family:'Roboto-Bold';}
	.st332{font-size:44px;}
	.st333{letter-spacing:7.01;}
	.st334{fill:none;}
</style>
<g id="background">
	<defs>
		<rect id="SVGID_1_" width="395" height="340"/>
	</defs>
	<clipPath id="SVGID_2_">
		<use xlink:href="#SVGID_1_"  style="overflow:visible;"/>
	</clipPath>
	<polygon class="st0" points="-52.12,346.86 -64.76,355.49 -79.77,350.37 -82.12,336.63 -69.47,328 -54.47,333.12 	"/>
	<polygon class="st0" points="-34.76,365.72 -47.41,374.34 -62.41,369.22 -64.76,355.49 -52.12,346.86 -37.11,351.97 	"/>
	<polygon class="st1" points="-24.47,343.35 -37.11,351.97 -52.12,346.86 -54.47,333.12 -41.82,324.49 -26.82,329.61 	"/>
	<polygon class="st2" points="-41.82,324.49 -54.47,333.12 -69.47,328 -71.83,314.26 -59.18,305.63 -44.18,310.75 	"/>
	<polygon class="st3" points="-31.53,302.12 -44.18,310.75 -59.18,305.63 -61.53,291.9 -48.89,283.27 -33.88,288.38 	"/>
	<polygon class="st0" points="-48.89,283.27 -61.53,291.9 -76.54,286.78 -78.89,273.04 -66.24,264.41 -51.24,269.53 	"/>
	<polygon class="st4" points="-38.59,260.9 -51.24,269.53 -66.24,264.41 -68.6,250.67 -55.95,242.05 -40.95,247.16 	"/>
	<polygon class="st0" points="-55.95,242.05 -68.6,250.67 -83.6,245.56 -85.95,231.82 -73.31,223.19 -58.31,228.31 	"/>
	<polygon class="st0" points="-45.66,219.68 -58.31,228.31 -73.31,223.19 -75.66,209.45 -63.02,200.82 -48.01,205.94 	"/>
	<polygon class="st0" points="-52.72,178.46 -65.37,187.08 -80.37,181.97 -82.73,168.23 -70.08,159.6 -55.08,164.72 	"/>
	<polygon class="st0" points="-7.11,362.2 -19.76,370.83 -34.76,365.72 -37.11,351.97 -24.47,343.35 -9.46,348.46 	"/>
	<polygon class="st5" points="3.18,339.84 -9.46,348.46 -24.47,343.35 -26.82,329.61 -14.17,320.98 0.83,326.1 	"/>
	<polygon class="st6" points="-14.17,320.98 -26.82,329.61 -41.82,324.49 -44.18,310.75 -31.53,302.12 -16.53,307.24 	"/>
	<polygon class="st7" points="-3.88,298.62 -16.53,307.24 -31.53,302.12 -33.88,288.38 -21.24,279.76 -6.23,284.87 	"/>
	<polygon class="st8" points="-21.24,279.76 -33.88,288.38 -48.89,283.27 -51.24,269.53 -38.59,260.9 -23.59,266.02 	"/>
	<polygon class="st9" points="-10.94,257.39 -23.59,266.02 -38.59,260.9 -40.95,247.16 -28.3,238.53 -13.3,243.65 	"/>
	<polygon class="st10" points="-28.3,238.53 -40.95,247.16 -55.95,242.05 -58.31,228.31 -45.66,219.68 -30.66,224.8 	"/>
	<polygon class="st11" points="-18.01,216.17 -30.66,224.8 -45.66,219.68 -48.01,205.94 -35.37,197.31 -20.36,202.43 	"/>
	<polygon class="st12" points="-35.37,197.31 -48.01,205.94 -63.02,200.82 -65.37,187.08 -52.72,178.46 -37.72,183.57 	"/>
	<polygon class="st13" points="-25.07,174.94 -37.72,183.57 -52.72,178.46 -55.08,164.72 -42.43,156.09 -27.43,161.21 	"/>
	<polygon class="st14" points="-42.43,156.09 -55.08,164.72 -70.08,159.6 -72.44,145.86 -59.79,137.23 -44.78,142.35 	"/>
	<polygon class="st15" points="-32.14,133.72 -44.78,142.35 -59.79,137.23 -62.14,123.49 -49.49,114.87 -34.49,119.98 	"/>
	<polygon class="st0" points="-49.49,114.87 -62.14,123.49 -77.14,118.38 -79.5,104.64 -66.85,96.01 -51.85,101.12 	"/>
	<polygon class="st16" points="-39.2,92.5 -51.85,101.12 -66.85,96.01 -69.21,82.27 -56.56,73.64 -41.56,78.76 	"/>
	<polygon class="st0" points="-56.56,73.64 -69.21,82.27 -84.21,77.15 -86.56,63.41 -73.91,54.79 -58.91,59.9 	"/>
	<polygon class="st0" points="-46.27,51.28 -58.91,59.9 -73.91,54.79 -76.27,41.05 -63.62,32.42 -48.62,37.54 	"/>
	<polygon class="st0" points="-53.33,10.05 -65.98,18.68 -80.98,13.56 -83.33,-0.18 -70.69,-8.8 -55.68,-3.69 	"/>
	<polygon class="st0" points="20.54,358.69 7.89,367.32 -7.11,362.2 -9.46,348.46 3.18,339.84 18.19,344.95 	"/>
	<polygon class="st17" points="30.83,336.33 18.19,344.95 3.18,339.84 0.83,326.1 13.48,317.47 28.48,322.59 	"/>
	<polygon class="st18" points="13.48,317.47 0.83,326.1 -14.17,320.98 -16.53,307.24 -3.88,298.62 11.12,303.73 	"/>
	<polygon class="st19" points="23.77,295.1 11.12,303.73 -3.88,298.62 -6.23,284.87 6.41,276.25 21.42,281.36 	"/>
	<polygon class="st20" points="6.41,276.25 -6.23,284.87 -21.24,279.76 -23.59,266.02 -10.94,257.39 4.06,262.51 	"/>
	<polygon class="st21" points="16.71,253.88 4.06,262.51 -10.94,257.39 -13.3,243.65 -0.65,235.02 14.35,240.14 	"/>
	<polygon class="st22" points="-0.65,235.02 -13.3,243.65 -28.3,238.53 -30.66,224.8 -18.01,216.17 -3.01,221.29 	"/>
	<polygon class="st23" points="9.64,212.66 -3.01,221.29 -18.01,216.17 -20.36,202.43 -7.72,193.8 7.29,198.92 	"/>
	<polygon class="st24" points="-7.72,193.8 -20.36,202.43 -35.37,197.31 -37.72,183.57 -25.07,174.94 -10.07,180.06 	"/>
	<polygon class="st25" points="2.58,171.43 -10.07,180.06 -25.07,174.94 -27.43,161.21 -14.78,152.58 0.22,157.69 	"/>
	<polygon class="st26" points="-14.78,152.58 -27.43,161.21 -42.43,156.09 -44.78,142.35 -32.14,133.72 -17.13,138.84 	"/>
	<polygon class="st27" points="-4.49,130.21 -17.13,138.84 -32.14,133.72 -34.49,119.98 -21.84,111.36 -6.84,116.47 	"/>
	<polygon class="st28" points="-21.84,111.36 -34.49,119.98 -49.49,114.87 -51.85,101.12 -39.2,92.5 -24.2,97.61 	"/>
	<polygon class="st29" points="-11.55,88.99 -24.2,97.61 -39.2,92.5 -41.56,78.76 -28.91,70.13 -13.91,75.25 	"/>
	<polygon class="st30" points="-28.91,70.13 -41.56,78.76 -56.56,73.64 -58.91,59.9 -46.27,51.28 -31.26,56.39 	"/>
	<polygon class="st31" points="-18.61,47.77 -31.26,56.39 -46.27,51.28 -48.62,37.54 -35.97,28.91 -20.97,34.02 	"/>
	<polygon class="st32" points="-35.97,28.91 -48.62,37.54 -63.62,32.42 -65.98,18.68 -53.33,10.05 -38.33,15.17 	"/>
	<polygon class="st33" points="-25.68,6.54 -38.33,15.17 -53.33,10.05 -55.68,-3.69 -43.04,-12.31 -28.03,-7.2 	"/>
	<polygon class="st0" points="65.55,374.04 52.9,382.67 37.9,377.55 35.54,363.81 48.19,355.18 63.19,360.3 	"/>
	<polygon class="st34" points="48.19,355.18 35.54,363.81 20.54,358.69 18.19,344.95 30.83,336.33 45.84,341.44 	"/>
	<polygon class="st35" points="58.48,332.82 45.84,341.44 30.83,336.33 28.48,322.59 41.13,313.96 56.13,319.07 	"/>
	<polygon class="st36" points="41.13,313.96 28.48,322.59 13.48,317.47 11.12,303.73 23.77,295.1 38.77,300.22 	"/>
	<polygon class="st37" points="51.42,291.59 38.77,300.22 23.77,295.1 21.42,281.36 34.06,272.74 49.07,277.85 	"/>
	<polygon class="st38" points="34.06,272.74 21.42,281.36 6.41,276.25 4.06,262.51 16.71,253.88 31.71,259 	"/>
	<polygon class="st39" points="44.36,250.37 31.71,259 16.71,253.88 14.35,240.14 27,231.51 42,236.63 	"/>
	<polygon class="st40" points="27,231.51 14.35,240.14 -0.65,235.02 -3.01,221.29 9.64,212.66 24.64,217.77 	"/>
	<polygon class="st41" points="37.29,209.15 24.64,217.77 9.64,212.66 7.29,198.92 19.93,190.29 34.94,195.41 	"/>
	<polygon class="st42" points="19.93,190.29 7.29,198.92 -7.72,193.8 -10.07,180.06 2.58,171.43 17.58,176.55 	"/>
	<polygon class="st43" points="30.23,167.92 17.58,176.55 2.58,171.43 0.22,157.69 12.87,149.07 27.87,154.18 	"/>
	<polygon class="st44" points="12.87,149.07 0.22,157.69 -14.78,152.58 -17.13,138.84 -4.49,130.21 10.52,135.33 	"/>
	<polygon class="st45" points="23.16,126.7 10.52,135.33 -4.49,130.21 -6.84,116.47 5.81,107.85 20.81,112.96 	"/>
	<polygon class="st46" points="5.81,107.85 -6.84,116.47 -21.84,111.36 -24.2,97.61 -11.55,88.99 3.45,94.1 	"/>
	<polygon class="st47" points="16.1,85.48 3.45,94.1 -11.55,88.99 -13.91,75.25 -1.26,66.62 13.74,71.74 	"/>
	<polygon class="st48" points="-1.26,66.62 -13.91,75.25 -28.91,70.13 -31.26,56.39 -18.61,47.77 -3.61,52.88 	"/>
	<polygon class="st49" points="9.04,44.26 -3.61,52.88 -18.61,47.77 -20.97,34.02 -8.32,25.4 6.68,30.51 	"/>
	<polygon class="st50" points="-8.32,25.4 -20.97,34.02 -35.97,28.91 -38.33,15.17 -25.68,6.54 -10.68,11.66 	"/>
	<polygon class="st51" points="1.97,3.03 -10.68,11.66 -25.68,6.54 -28.03,-7.2 -15.39,-15.82 -0.38,-10.71 	"/>
	<polygon class="st0" points="-15.39,-15.82 -28.03,-7.2 -43.04,-12.31 -45.39,-26.05 -32.74,-34.68 -17.74,-29.56 	"/>
	<polygon class="st0" points="93.2,370.53 80.55,379.16 65.55,374.04 63.19,360.3 75.84,351.67 90.84,356.79 	"/>
	<polygon class="st52" points="75.84,351.67 63.19,360.3 48.19,355.18 45.84,341.44 58.48,332.82 73.48,337.93 	"/>
	<polygon class="st53" points="86.13,329.31 73.48,337.93 58.48,332.82 56.13,319.07 68.78,310.45 83.78,315.57 	"/>
	<polygon class="st54" points="68.78,310.45 56.13,319.07 41.13,313.96 38.77,300.22 51.42,291.59 66.42,296.71 	"/>
	<polygon class="st55" points="79.07,288.08 66.42,296.71 51.42,291.59 49.07,277.85 61.71,269.23 76.72,274.34 	"/>
	<polygon class="st56" points="61.71,269.23 49.07,277.85 34.06,272.74 31.71,259 44.36,250.37 59.36,255.49 	"/>
	<polygon class="st57" points="72.01,246.86 59.36,255.49 44.36,250.37 42,236.63 54.65,228 69.65,233.12 	"/>
	<polygon class="st58" points="54.65,228 42,236.63 27,231.51 24.64,217.77 37.29,209.15 52.29,214.26 	"/>
	<polygon class="st59" points="64.94,205.64 52.29,214.26 37.29,209.15 34.94,195.41 47.58,186.78 62.59,191.89 	"/>
	<polygon class="st60" points="47.58,186.78 34.94,195.41 19.93,190.29 17.58,176.55 30.23,167.92 45.23,173.04 	"/>
	<polygon class="st61" points="57.88,164.41 45.23,173.04 30.23,167.92 27.87,154.18 40.52,145.56 55.52,150.67 	"/>
	<polygon class="st62" points="40.52,145.56 27.87,154.18 12.87,149.07 10.52,135.33 23.16,126.7 38.17,131.82 	"/>
	<polygon class="st63" points="50.81,123.19 38.17,131.82 23.16,126.7 20.81,112.96 33.46,104.33 48.46,109.45 	"/>
	<polygon class="st64" points="33.46,104.33 20.81,112.96 5.81,107.85 3.45,94.1 16.1,85.48 31.1,90.59 	"/>
	<polygon class="st65" points="43.75,81.97 31.1,90.59 16.1,85.48 13.74,71.74 26.39,63.11 41.39,68.23 	"/>
	<polygon class="st66" points="26.39,63.11 13.74,71.74 -1.26,66.62 -3.61,52.88 9.04,44.26 24.04,49.37 	"/>
	<polygon class="st67" points="36.69,40.74 24.04,49.37 9.04,44.26 6.68,30.51 19.33,21.89 34.33,27 	"/>
	<polygon class="st68" points="19.33,21.89 6.68,30.51 -8.32,25.4 -10.68,11.66 1.97,3.03 16.97,8.15 	"/>
	<polygon class="st69" points="29.62,-0.48 16.97,8.15 1.97,3.03 -0.38,-10.71 12.26,-19.34 27.27,-14.22 	"/>
	<polygon class="st0" points="12.26,-19.34 -0.38,-10.71 -15.39,-15.82 -17.74,-29.56 -5.09,-38.19 9.91,-33.08 	"/>
	<polygon class="st0" points="120.85,367.02 108.2,375.64 93.2,370.53 90.84,356.79 103.49,348.16 118.49,353.28 	"/>
	<polygon class="st70" points="103.49,348.16 90.84,356.79 75.84,351.67 73.48,337.93 86.13,329.31 101.14,334.42 	"/>
	<polygon class="st71" points="113.78,325.8 101.14,334.42 86.13,329.31 83.78,315.57 96.43,306.94 111.43,312.05 	"/>
	<polygon class="st72" points="96.43,306.94 83.78,315.57 68.78,310.45 66.42,296.71 79.07,288.08 94.07,293.2 	"/>
	<polygon class="st73" points="106.72,284.57 94.07,293.2 79.07,288.08 76.72,274.34 89.36,265.72 104.37,270.83 	"/>
	<polygon class="st74" points="89.36,265.72 76.72,274.34 61.71,269.23 59.36,255.49 72.01,246.86 87.01,251.97 	"/>
	<polygon class="st75" points="99.66,243.35 87.01,251.97 72.01,246.86 69.65,233.12 82.3,224.49 97.3,229.61 	"/>
	<polygon class="st76" points="82.3,224.49 69.65,233.12 54.65,228 52.29,214.26 64.94,205.64 79.94,210.75 	"/>
	<polygon class="st77" points="92.59,202.13 79.94,210.75 64.94,205.64 62.59,191.89 75.24,183.27 90.24,188.39 	"/>
	<polygon class="st78" points="75.24,183.27 62.59,191.89 47.58,186.78 45.23,173.04 57.88,164.41 72.88,169.53 	"/>
	<polygon class="st79" points="85.53,160.9 72.88,169.53 57.88,164.41 55.52,150.67 68.17,142.05 83.17,147.16 	"/>
	<polygon class="st80" points="68.17,142.05 55.52,150.67 40.52,145.56 38.17,131.82 50.81,123.19 65.82,128.3 	"/>
	<polygon class="st81" points="78.46,119.68 65.82,128.3 50.81,123.19 48.46,109.45 61.11,100.82 76.11,105.94 	"/>
	<polygon class="st82" points="61.11,100.82 48.46,109.45 33.46,104.33 31.1,90.59 43.75,81.97 58.75,87.08 	"/>
	<polygon class="st83" points="71.4,78.46 58.75,87.08 43.75,81.97 41.39,68.23 54.04,59.6 69.04,64.72 	"/>
	<polygon class="st84" points="54.04,59.6 41.39,68.23 26.39,63.11 24.04,49.37 36.69,40.74 51.69,45.86 	"/>
	<polygon class="st85" points="64.33,37.23 51.69,45.86 36.69,40.74 34.33,27 46.98,18.38 61.98,23.49 	"/>
	<polygon class="st86" points="46.98,18.38 34.33,27 19.33,21.89 16.97,8.15 29.62,-0.48 44.62,4.64 	"/>
	<polygon class="st87" points="57.27,-3.99 44.62,4.64 29.62,-0.48 27.27,-14.22 39.91,-22.85 54.92,-17.73 	"/>
	<polygon class="st0" points="39.91,-22.85 27.27,-14.22 12.26,-19.34 9.91,-33.08 22.56,-41.7 37.56,-36.59 	"/>
	<polygon class="st0" points="148.5,363.51 135.85,372.13 120.85,367.02 118.49,353.28 131.14,344.65 146.14,349.77 	"/>
	<polygon class="st88" points="131.14,344.65 118.49,353.28 103.49,348.16 101.14,334.42 113.78,325.8 128.79,330.91 	"/>
	<polygon class="st89" points="141.43,322.29 128.79,330.91 113.78,325.8 111.43,312.05 124.08,303.43 139.08,308.54 	"/>
	<polygon class="st90" points="124.08,303.43 111.43,312.05 96.43,306.94 94.07,293.2 106.72,284.57 121.72,289.69 	"/>
	<polygon class="st91" points="134.37,281.06 121.72,289.69 106.72,284.57 104.37,270.83 117.01,262.21 132.02,267.32 	"/>
	<polygon class="st92" points="117.01,262.21 104.37,270.83 89.36,265.72 87.01,251.97 99.66,243.35 114.66,248.47 	"/>
	<polygon class="st93" points="127.31,239.84 114.66,248.47 99.66,243.35 97.3,229.61 109.95,220.98 124.95,226.1 	"/>
	<polygon class="st94" points="109.95,220.98 97.3,229.61 82.3,224.49 79.94,210.75 92.59,202.13 107.59,207.24 	"/>
	<polygon class="st95" points="120.24,198.62 107.59,207.24 92.59,202.13 90.24,188.39 102.88,179.76 117.89,184.87 	"/>
	<polygon class="st96" points="102.88,179.76 90.24,188.39 75.24,183.27 72.88,169.53 85.53,160.9 100.53,166.02 	"/>
	<polygon class="st97" points="113.18,157.39 100.53,166.02 85.53,160.9 83.17,147.16 95.82,138.54 110.82,143.65 	"/>
	<polygon class="st98" points="95.82,138.54 83.17,147.16 68.17,142.05 65.82,128.3 78.46,119.68 93.47,124.79 	"/>
	<polygon class="st99" points="106.11,116.17 93.47,124.79 78.46,119.68 76.11,105.94 88.76,97.31 103.76,102.43 	"/>
	<polygon class="st100" points="88.76,97.31 76.11,105.94 61.11,100.82 58.75,87.08 71.4,78.46 86.4,83.57 	"/>
	<polygon class="st101" points="99.05,74.95 86.4,83.57 71.4,78.46 69.04,64.72 81.69,56.09 96.69,61.21 	"/>
	<polygon class="st102" points="81.69,56.09 69.04,64.72 54.04,59.6 51.69,45.86 64.33,37.23 79.34,42.35 	"/>
	<polygon class="st103" points="91.98,33.72 79.34,42.35 64.33,37.23 61.98,23.49 74.63,14.87 89.63,19.98 	"/>
	<polygon class="st104" points="74.63,14.87 61.98,23.49 46.98,18.38 44.62,4.64 57.27,-3.99 72.27,1.13 	"/>
	<polygon class="st105" points="84.92,-7.5 72.27,1.13 57.27,-3.99 54.92,-17.73 67.56,-26.36 82.57,-21.24 	"/>
	<polygon class="st0" points="176.15,360 163.5,368.62 148.5,363.51 146.14,349.77 158.79,341.14 173.79,346.26 	"/>
	<polygon class="st106" points="158.79,341.14 146.14,349.77 131.14,344.65 128.79,330.91 141.43,322.29 156.44,327.4 	"/>
	<polygon class="st107" points="169.08,318.77 156.44,327.4 141.43,322.29 139.08,308.54 151.73,299.92 166.73,305.03 	"/>
	<polygon class="st108" points="151.73,299.92 139.08,308.54 124.08,303.43 121.72,289.69 134.37,281.06 149.37,286.18 	"/>
	<polygon class="st109" points="162.02,277.55 149.37,286.18 134.37,281.06 132.02,267.32 144.66,258.69 159.66,263.81 	"/>
	<polygon class="st110" points="144.66,258.69 132.02,267.32 117.01,262.21 114.66,248.47 127.31,239.84 142.31,244.95 	"/>
	<polygon class="st111" points="154.96,236.33 142.31,244.95 127.31,239.84 124.95,226.1 137.6,217.47 152.6,222.59 	"/>
	<polygon class="st112" points="137.6,217.47 124.95,226.1 109.95,220.98 107.59,207.24 120.24,198.62 135.25,203.73 	"/>
	<polygon class="st113" points="147.89,195.1 135.25,203.73 120.24,198.62 117.89,184.87 130.53,176.25 145.54,181.36 	"/>
	<polygon class="st114" points="130.53,176.25 117.89,184.87 102.88,179.76 100.53,166.02 113.18,157.39 128.18,162.51 	"/>
	<polygon class="st115" points="140.83,153.88 128.18,162.51 113.18,157.39 110.82,143.65 123.47,135.02 138.47,140.14 	"/>
	<polygon class="st116" points="123.47,135.02 110.82,143.65 95.82,138.54 93.47,124.79 106.11,116.17 121.11,121.28 	"/>
	<polygon class="st117" points="133.76,112.66 121.11,121.28 106.11,116.17 103.76,102.43 116.41,93.8 131.41,98.92 	"/>
	<polygon class="st118" points="116.41,93.8 103.76,102.43 88.76,97.31 86.4,83.57 99.05,74.95 114.05,80.06 	"/>
	<polygon class="st119" points="126.7,71.44 114.05,80.06 99.05,74.95 96.69,61.21 109.34,52.58 124.34,57.7 	"/>
	<polygon class="st120" points="109.34,52.58 96.69,61.21 81.69,56.09 79.34,42.35 91.98,33.72 106.99,38.84 	"/>
	<polygon class="st121" points="119.63,30.21 106.99,38.84 91.98,33.72 89.63,19.98 102.28,11.36 117.28,16.47 	"/>
	<polygon class="st122" points="102.28,11.36 89.63,19.98 74.63,14.87 72.27,1.13 84.92,-7.5 99.92,-2.38 	"/>
	<polygon class="st0" points="112.57,-11.01 99.92,-2.38 84.92,-7.5 82.57,-21.24 95.21,-29.87 110.22,-24.75 	"/>
	<polygon class="st123" points="203.8,356.49 191.15,365.11 176.15,360 173.79,346.26 186.44,337.63 201.44,342.75 	"/>
	<polygon class="st124" points="186.44,337.63 173.79,346.26 158.79,341.14 156.44,327.4 169.08,318.77 184.09,323.89 	"/>
	<polygon class="st125" points="196.73,315.26 184.09,323.89 169.08,318.77 166.73,305.03 179.38,296.41 194.38,301.52 	"/>
	<polygon class="st126" points="179.38,296.41 166.73,305.03 151.73,299.92 149.37,286.18 162.02,277.55 177.02,282.67 	"/>
	<polygon class="st127" points="189.67,274.04 177.02,282.67 162.02,277.55 159.66,263.81 172.31,255.18 187.31,260.3 	"/>
	<polygon class="st128" points="172.31,255.18 159.66,263.81 144.66,258.69 142.31,244.95 154.96,236.33 169.96,241.44 	"/>
	<polygon class="st129" points="182.61,232.82 169.96,241.44 154.96,236.33 152.6,222.59 165.25,213.96 180.25,219.08 	"/>
	<polygon class="st130" points="165.25,213.96 152.6,222.59 137.6,217.47 135.25,203.73 147.89,195.1 162.89,200.22 	"/>
	<polygon class="st131" points="175.54,191.59 162.89,200.22 147.89,195.1 145.54,181.36 158.18,172.74 173.19,177.85 	"/>
	<polygon class="st132" points="158.18,172.74 145.54,181.36 130.53,176.25 128.18,162.51 140.83,153.88 155.83,159 	"/>
	<polygon class="st133" points="168.48,150.37 155.83,159 140.83,153.88 138.47,140.14 151.12,131.52 166.12,136.63 	"/>
	<polygon class="st134" points="151.12,131.52 138.47,140.14 123.47,135.02 121.11,121.28 133.76,112.66 148.77,117.77 	"/>
	<polygon class="st135" points="161.41,109.15 148.77,117.77 133.76,112.66 131.41,98.92 144.06,90.29 159.06,95.41 	"/>
	<polygon class="st136" points="144.06,90.29 131.41,98.92 116.41,93.8 114.05,80.06 126.7,71.44 141.7,76.55 	"/>
	<polygon class="st137" points="154.35,67.92 141.7,76.55 126.7,71.44 124.34,57.7 136.99,49.07 151.99,54.18 	"/>
	<polygon class="st138" points="136.99,49.07 124.34,57.7 109.34,52.58 106.99,38.84 119.63,30.21 134.64,35.33 	"/>
	<polygon class="st139" points="147.28,26.7 134.64,35.33 119.63,30.21 117.28,16.47 129.93,7.85 144.93,12.96 	"/>
	<polygon class="st140" points="129.93,7.85 117.28,16.47 102.28,11.36 99.92,-2.38 112.57,-11.01 127.57,-5.89 	"/>
	<polygon class="st0" points="140.22,-14.52 127.57,-5.89 112.57,-11.01 110.22,-24.75 122.86,-33.38 137.87,-28.26 	"/>
	<polygon class="st0" points="221.16,375.34 208.51,383.97 193.5,378.85 191.15,365.11 203.8,356.49 218.8,361.6 	"/>
	<polygon class="st141" points="231.45,352.98 218.8,361.6 203.8,356.49 201.44,342.75 214.09,334.12 229.09,339.24 	"/>
	<polygon class="st142" points="214.09,334.12 201.44,342.75 186.44,337.63 184.09,323.89 196.73,315.26 211.74,320.38 	"/>
	<polygon class="st143" points="224.38,311.75 211.74,320.38 196.73,315.26 194.38,301.52 207.03,292.9 222.03,298.01 	"/>
	<polygon class="st144" points="207.03,292.9 194.38,301.52 179.38,296.41 177.02,282.67 189.67,274.04 204.67,279.16 	"/>
	<polygon class="st145" points="217.32,270.53 204.67,279.16 189.67,274.04 187.31,260.3 199.96,251.67 214.96,256.79 	"/>
	<polygon class="st146" points="199.96,251.67 187.31,260.3 172.31,255.18 169.96,241.44 182.61,232.82 197.61,237.93 	"/>
	<polygon class="st147" points="210.25,229.31 197.61,237.93 182.61,232.82 180.25,219.08 192.9,210.45 207.9,215.57 	"/>
	<polygon class="st148" points="192.9,210.45 180.25,219.08 165.25,213.96 162.89,200.22 175.54,191.59 190.54,196.71 	"/>
	<polygon class="st149" points="203.19,188.08 190.54,196.71 175.54,191.59 173.19,177.85 185.83,169.23 200.84,174.34 	"/>
	<polygon class="st150" points="185.83,169.23 173.19,177.85 158.18,172.74 155.83,159 168.48,150.37 183.48,155.49 	"/>
	<polygon class="st151" points="196.13,146.86 183.48,155.49 168.48,150.37 166.12,136.63 178.77,128.01 193.77,133.12 	"/>
	<polygon class="st152" points="178.77,128.01 166.12,136.63 151.12,131.52 148.77,117.77 161.41,109.15 176.42,114.26 	"/>
	<polygon class="st153" points="189.06,105.64 176.42,114.26 161.41,109.15 159.06,95.41 171.71,86.78 186.71,91.9 	"/>
	<polygon class="st154" points="171.71,86.78 159.06,95.41 144.06,90.29 141.7,76.55 154.35,67.92 169.35,73.04 	"/>
	<polygon class="st155" points="182,64.41 169.35,73.04 154.35,67.92 151.99,54.18 164.64,45.56 179.64,50.67 	"/>
	<polygon class="st156" points="164.64,45.56 151.99,54.18 136.99,49.07 134.64,35.33 147.28,26.7 162.29,31.82 	"/>
	<polygon class="st157" points="174.93,23.19 162.29,31.82 147.28,26.7 144.93,12.96 157.58,4.34 172.58,9.45 	"/>
	<polygon class="st158" points="157.58,4.34 144.93,12.96 129.93,7.85 127.57,-5.89 140.22,-14.52 155.22,-9.41 	"/>
	<polygon class="st0" points="167.87,-18.03 155.22,-9.41 140.22,-14.52 137.87,-28.26 150.51,-36.89 165.52,-31.77 	"/>
	<polygon class="st0" points="248.8,371.83 236.16,380.46 221.16,375.34 218.8,361.6 231.45,352.98 246.45,358.09 	"/>
	<polygon class="st159" points="259.1,349.47 246.45,358.09 231.45,352.98 229.09,339.24 241.74,330.61 256.74,335.73 	"/>
	<polygon class="st160" points="241.74,330.61 229.09,339.24 214.09,334.12 211.74,320.38 224.38,311.75 239.38,316.87 	"/>
	<polygon class="st161" points="252.03,308.24 239.38,316.87 224.38,311.75 222.03,298.01 234.68,289.39 249.68,294.5 	"/>
	<polygon class="st162" points="234.68,289.39 222.03,298.01 207.03,292.9 204.67,279.16 217.32,270.53 232.32,275.65 	"/>
	<polygon class="st163" points="244.97,267.02 232.32,275.65 217.32,270.53 214.96,256.79 227.61,248.16 242.61,253.28 	"/>
	<polygon class="st164" points="227.61,248.16 214.96,256.79 199.96,251.67 197.61,237.93 210.25,229.31 225.26,234.42 	"/>
	<polygon class="st165" points="237.9,225.8 225.26,234.42 210.25,229.31 207.9,215.57 220.55,206.94 235.55,212.06 	"/>
	<polygon class="st166" points="220.55,206.94 207.9,215.57 192.9,210.45 190.54,196.71 203.19,188.08 218.19,193.2 	"/>
	<polygon class="st167" points="230.84,184.57 218.19,193.2 203.19,188.08 200.84,174.34 213.48,165.72 228.49,170.83 	"/>
	<polygon class="st168" points="213.48,165.72 200.84,174.34 185.83,169.23 183.48,155.49 196.13,146.86 211.13,151.98 	"/>
	<polygon class="st169" points="223.78,143.35 211.13,151.98 196.13,146.86 193.77,133.12 206.42,124.49 221.42,129.61 	"/>
	<polygon class="st170" points="206.42,124.49 193.77,133.12 178.77,128.01 176.42,114.26 189.06,105.64 204.07,110.75 	"/>
	<polygon class="st171" points="216.71,102.13 204.07,110.75 189.06,105.64 186.71,91.9 199.36,83.27 214.36,88.39 	"/>
	<polygon class="st172" points="199.36,83.27 186.71,91.9 171.71,86.78 169.35,73.04 182,64.41 197,69.53 	"/>
	<polygon class="st173" points="209.65,60.9 197,69.53 182,64.41 179.64,50.67 192.29,42.05 207.29,47.16 	"/>
	<polygon class="st174" points="192.29,42.05 179.64,50.67 164.64,45.56 162.29,31.82 174.93,23.19 189.94,28.31 	"/>
	<polygon class="st175" points="202.58,19.68 189.94,28.31 174.93,23.19 172.58,9.45 185.23,0.83 200.23,5.94 	"/>
	<polygon class="st176" points="185.23,0.83 172.58,9.45 157.58,4.34 155.22,-9.41 167.87,-18.03 182.87,-12.92 	"/>
	<polygon class="st0" points="195.52,-21.54 182.87,-12.92 167.87,-18.03 165.52,-31.77 178.16,-40.4 193.16,-35.28 	"/>
	<polygon class="st0" points="276.46,368.32 263.81,376.95 248.8,371.83 246.45,358.09 259.1,349.47 274.1,354.58 	"/>
	<polygon class="st177" points="286.75,345.96 274.1,354.58 259.1,349.47 256.74,335.73 269.39,327.1 284.39,332.22 	"/>
	<polygon class="st178" points="269.39,327.1 256.74,335.73 241.74,330.61 239.38,316.87 252.03,308.24 267.04,313.36 	"/>
	<polygon class="st179" points="279.68,304.73 267.04,313.36 252.03,308.24 249.68,294.5 262.33,285.88 277.33,290.99 	"/>
	<polygon class="st180" points="262.33,285.88 249.68,294.5 234.68,289.39 232.32,275.65 244.97,267.02 259.97,272.14 	"/>
	<polygon class="st181" points="272.62,263.51 259.97,272.14 244.97,267.02 242.61,253.28 255.26,244.65 270.27,249.77 	"/>
	<polygon class="st182" points="255.26,244.65 242.61,253.28 227.61,248.16 225.26,234.42 237.9,225.8 252.91,230.91 	"/>
	<polygon class="st183" points="265.55,222.29 252.91,230.91 237.9,225.8 235.55,212.06 248.2,203.43 263.2,208.55 	"/>
	<polygon class="st184" points="248.2,203.43 235.55,212.06 220.55,206.94 218.19,193.2 230.84,184.57 245.84,189.69 	"/>
	<polygon class="st185" points="258.49,181.06 245.84,189.69 230.84,184.57 228.49,170.83 241.13,162.21 256.14,167.32 	"/>
	<polygon class="st186" points="241.13,162.21 228.49,170.83 213.48,165.72 211.13,151.98 223.78,143.35 238.78,148.47 	"/>
	<polygon class="st187" points="251.43,139.84 238.78,148.47 223.78,143.35 221.42,129.61 234.07,120.98 249.07,126.1 	"/>
	<polygon class="st188" points="234.07,120.98 221.42,129.61 206.42,124.49 204.07,110.75 216.71,102.13 231.72,107.24 	"/>
	<polygon class="st189" points="244.36,98.62 231.72,107.24 216.71,102.13 214.36,88.39 227.01,79.76 242.01,84.88 	"/>
	<polygon class="st190" points="227.01,79.76 214.36,88.39 199.36,83.27 197,69.53 209.65,60.9 224.65,66.02 	"/>
	<polygon class="st191" points="237.3,57.39 224.65,66.02 209.65,60.9 207.29,47.16 219.94,38.54 234.94,43.65 	"/>
	<polygon class="st192" points="219.94,38.54 207.29,47.16 192.29,42.05 189.94,28.31 202.58,19.68 217.59,24.8 	"/>
	<polygon class="st193" points="230.24,16.17 217.59,24.8 202.58,19.68 200.23,5.94 212.88,-2.69 227.88,2.43 	"/>
	<polygon class="st194" points="212.88,-2.69 200.23,5.94 185.23,0.83 182.87,-12.92 195.52,-21.54 210.52,-16.43 	"/>
	<polygon class="st0" points="304.11,364.81 291.46,373.44 276.46,368.32 274.1,354.58 286.75,345.96 301.75,351.07 	"/>
	<polygon class="st195" points="314.4,342.44 301.75,351.07 286.75,345.96 284.39,332.22 297.04,323.59 312.04,328.71 	"/>
	<polygon class="st196" points="297.04,323.59 284.39,332.22 269.39,327.1 267.04,313.36 279.68,304.73 294.69,309.85 	"/>
	<polygon class="st197" points="307.33,301.22 294.69,309.85 279.68,304.73 277.33,290.99 289.98,282.37 304.98,287.48 	"/>
	<polygon class="st198" points="289.98,282.37 277.33,290.99 262.33,285.88 259.97,272.14 272.62,263.51 287.62,268.62 	"/>
	<polygon class="st199" points="300.27,260 287.62,268.62 272.62,263.51 270.27,249.77 282.91,241.14 297.91,246.26 	"/>
	<polygon class="st200" points="282.91,241.14 270.27,249.77 255.26,244.65 252.91,230.91 265.55,222.29 280.56,227.4 	"/>
	<polygon class="st201" points="293.21,218.78 280.56,227.4 265.55,222.29 263.2,208.55 275.85,199.92 290.85,205.03 	"/>
	<polygon class="st202" points="275.85,199.92 263.2,208.55 248.2,203.43 245.84,189.69 258.49,181.06 273.49,186.18 	"/>
	<polygon class="st203" points="286.14,177.55 273.49,186.18 258.49,181.06 256.14,167.32 268.78,158.7 283.79,163.81 	"/>
	<polygon class="st204" points="268.78,158.7 256.14,167.32 241.13,162.21 238.78,148.47 251.43,139.84 266.43,144.96 	"/>
	<polygon class="st205" points="279.07,136.33 266.43,144.96 251.43,139.84 249.07,126.1 261.72,117.47 276.72,122.59 	"/>
	<polygon class="st206" points="261.72,117.47 249.07,126.1 234.07,120.98 231.72,107.24 244.36,98.62 259.36,103.73 	"/>
	<polygon class="st207" points="272.01,95.11 259.36,103.73 244.36,98.62 242.01,84.88 254.65,76.25 269.66,81.37 	"/>
	<polygon class="st208" points="254.65,76.25 242.01,84.88 227.01,79.76 224.65,66.02 237.3,57.39 252.3,62.51 	"/>
	<polygon class="st209" points="264.95,53.88 252.3,62.51 237.3,57.39 234.94,43.65 247.59,35.03 262.59,40.14 	"/>
	<polygon class="st210" points="247.59,35.03 234.94,43.65 219.94,38.54 217.59,24.8 230.24,16.17 245.24,21.29 	"/>
	<polygon class="st211" points="257.88,12.66 245.24,21.29 230.24,16.17 227.88,2.43 240.53,-6.2 255.53,-1.08 	"/>
	<polygon class="st212" points="240.53,-6.2 227.88,2.43 212.88,-2.69 210.52,-16.43 223.17,-25.05 238.17,-19.94 	"/>
	<polygon class="st0" points="331.75,361.3 319.11,369.93 304.11,364.81 301.75,351.07 314.4,342.44 329.4,347.56 	"/>
	<polygon class="st213" points="342.05,338.94 329.4,347.56 314.4,342.44 312.04,328.71 324.69,320.08 339.69,325.19 	"/>
	<polygon class="st214" points="324.69,320.08 312.04,328.71 297.04,323.59 294.69,309.85 307.33,301.22 322.34,306.34 	"/>
	<polygon class="st215" points="334.98,297.71 322.34,306.34 307.33,301.22 304.98,287.48 317.63,278.86 332.63,283.97 	"/>
	<polygon class="st216" points="317.63,278.86 304.98,287.48 289.98,282.37 287.62,268.62 300.27,260 315.27,265.11 	"/>
	<polygon class="st217" points="327.92,256.49 315.27,265.11 300.27,260 297.91,246.26 310.56,237.63 325.56,242.75 	"/>
	<polygon class="st218" points="310.56,237.63 297.91,246.26 282.91,241.14 280.56,227.4 293.21,218.78 308.21,223.89 	"/>
	<polygon class="st219" points="320.86,215.27 308.21,223.89 293.21,218.78 290.85,205.03 303.5,196.41 318.5,201.52 	"/>
	<polygon class="st220" points="303.5,196.41 290.85,205.03 275.85,199.92 273.49,186.18 286.14,177.55 301.14,182.67 	"/>
	<polygon class="st221" points="313.79,174.04 301.14,182.67 286.14,177.55 283.79,163.81 296.43,155.19 311.44,160.3 	"/>
	<polygon class="st222" points="296.43,155.19 283.79,163.81 268.78,158.7 266.43,144.96 279.07,136.33 294.08,141.44 	"/>
	<polygon class="st223" points="306.72,132.82 294.08,141.44 279.07,136.33 276.72,122.59 289.37,113.96 304.37,119.08 	"/>
	<polygon class="st224" points="289.37,113.96 276.72,122.59 261.72,117.47 259.36,103.73 272.01,95.11 287.01,100.22 	"/>
	<polygon class="st225" points="299.66,91.6 287.01,100.22 272.01,95.11 269.66,81.37 282.31,72.74 297.31,77.85 	"/>
	<polygon class="st226" points="282.31,72.74 269.66,81.37 254.65,76.25 252.3,62.51 264.95,53.88 279.95,59 	"/>
	<polygon class="st227" points="292.6,50.37 279.95,59 264.95,53.88 262.59,40.14 275.24,31.52 290.24,36.63 	"/>
	<polygon class="st228" points="275.24,31.52 262.59,40.14 247.59,35.03 245.24,21.29 257.88,12.66 272.89,17.78 	"/>
	<polygon class="st229" points="285.53,9.15 272.89,17.78 257.88,12.66 255.53,-1.08 268.18,-9.71 283.18,-4.59 	"/>
	<polygon class="st230" points="268.18,-9.71 255.53,-1.08 240.53,-6.2 238.17,-19.94 250.82,-28.56 265.82,-23.45 	"/>
	<polygon class="st0" points="376.76,376.65 364.11,385.27 349.11,380.16 346.76,366.42 359.4,357.79 374.41,362.91 	"/>
	<polygon class="st231" points="359.4,357.79 346.76,366.42 331.75,361.3 329.4,347.56 342.05,338.94 357.05,344.05 	"/>
	<polygon class="st232" points="369.7,335.42 357.05,344.05 342.05,338.94 339.69,325.19 352.34,316.57 367.34,321.68 	"/>
	<polygon class="st233" points="352.34,316.57 339.69,325.19 324.69,320.08 322.34,306.34 334.98,297.71 349.99,302.83 	"/>
	<polygon class="st234" points="362.63,294.2 349.99,302.83 334.98,297.71 332.63,283.97 345.28,275.34 360.28,280.46 	"/>
	<polygon class="st235" points="345.28,275.34 332.63,283.97 317.63,278.86 315.27,265.11 327.92,256.49 342.92,261.61 	"/>
	<polygon class="st236" points="355.57,252.98 342.92,261.61 327.92,256.49 325.56,242.75 338.21,234.12 353.21,239.24 	"/>
	<polygon class="st237" points="338.21,234.12 325.56,242.75 310.56,237.63 308.21,223.89 320.86,215.27 335.86,220.38 	"/>
	<polygon class="st238" points="348.5,211.76 335.86,220.38 320.86,215.27 318.5,201.52 331.15,192.9 346.15,198.01 	"/>
	<polygon class="st239" points="331.15,192.9 318.5,201.52 303.5,196.41 301.14,182.67 313.79,174.04 328.79,179.16 	"/>
	<polygon class="st240" points="341.44,170.53 328.79,179.16 313.79,174.04 311.44,160.3 324.08,151.68 339.08,156.79 	"/>
	<polygon class="st241" points="324.08,151.68 311.44,160.3 296.43,155.19 294.08,141.44 306.72,132.82 321.73,137.93 	"/>
	<polygon class="st242" points="334.38,129.31 321.73,137.93 306.72,132.82 304.37,119.08 317.02,110.45 332.02,115.57 	"/>
	<polygon class="st243" points="317.02,110.45 304.37,119.08 289.37,113.96 287.01,100.22 299.66,91.6 314.66,96.71 	"/>
	<polygon class="st244" points="327.31,88.09 314.66,96.71 299.66,91.6 297.31,77.85 309.96,69.23 324.96,74.34 	"/>
	<polygon class="st245" points="309.96,69.23 297.31,77.85 282.31,72.74 279.95,59 292.6,50.37 307.6,55.49 	"/>
	<polygon class="st246" points="320.25,46.86 307.6,55.49 292.6,50.37 290.24,36.63 302.89,28 317.89,33.12 	"/>
	<polygon class="st247" points="302.89,28 290.24,36.63 275.24,31.52 272.89,17.78 285.53,9.15 300.54,14.26 	"/>
	<polygon class="st248" points="313.18,5.64 300.54,14.26 285.53,9.15 283.18,-4.59 295.83,-13.22 310.83,-8.1 	"/>
	<polygon class="st0" points="295.83,-13.22 283.18,-4.59 268.18,-9.71 265.82,-23.45 278.47,-32.07 293.47,-26.96 	"/>
	<polygon class="st0" points="404.41,373.14 391.76,381.76 376.76,376.65 374.41,362.91 387.05,354.28 402.06,359.39 	"/>
	<polygon class="st249" points="387.05,354.28 374.41,362.91 359.4,357.79 357.05,344.05 369.7,335.42 384.7,340.54 	"/>
	<polygon class="st250" points="397.35,331.91 384.7,340.54 369.7,335.42 367.34,321.68 379.99,313.06 394.99,318.17 	"/>
	<polygon class="st251" points="379.99,313.06 367.34,321.68 352.34,316.57 349.99,302.83 362.63,294.2 377.64,299.32 	"/>
	<polygon class="st252" points="390.28,290.69 377.64,299.32 362.63,294.2 360.28,280.46 372.93,271.84 387.93,276.95 	"/>
	<polygon class="st253" points="372.93,271.84 360.28,280.46 345.28,275.34 342.92,261.61 355.57,252.98 370.57,258.09 	"/>
	<polygon class="st254" points="383.22,249.47 370.57,258.09 355.57,252.98 353.21,239.24 365.86,230.61 380.86,235.73 	"/>
	<polygon class="st255" points="365.86,230.61 353.21,239.24 338.21,234.12 335.86,220.38 348.5,211.76 363.51,216.87 	"/>
	<polygon class="st256" points="376.15,208.24 363.51,216.87 348.5,211.76 346.15,198.01 358.8,189.39 373.8,194.5 	"/>
	<polygon class="st257" points="358.8,189.39 346.15,198.01 331.15,192.9 328.79,179.16 341.44,170.53 356.44,175.65 	"/>
	<polygon class="st258" points="369.09,167.02 356.44,175.65 341.44,170.53 339.08,156.79 351.74,148.16 366.74,153.28 	"/>
	<polygon class="st259" points="351.74,148.16 339.08,156.79 324.08,151.68 321.73,137.93 334.38,129.31 349.38,134.42 	"/>
	<polygon class="st260" points="362.03,125.8 349.38,134.42 334.38,129.31 332.02,115.57 344.67,106.94 359.67,112.06 	"/>
	<polygon class="st261" points="344.67,106.94 332.02,115.57 317.02,110.45 314.66,96.71 327.31,88.09 342.32,93.2 	"/>
	<polygon class="st262" points="354.96,84.57 342.32,93.2 327.31,88.09 324.96,74.34 337.61,65.72 352.61,70.83 	"/>
	<polygon class="st263" points="337.61,65.72 324.96,74.34 309.96,69.23 307.6,55.49 320.25,46.86 335.25,51.98 	"/>
	<polygon class="st264" points="347.9,43.35 335.25,51.98 320.25,46.86 317.89,33.12 330.54,24.5 345.54,29.61 	"/>
	<polygon class="st265" points="330.54,24.5 317.89,33.12 302.89,28 300.54,14.26 313.18,5.64 328.19,10.75 	"/>
	<polygon class="st266" points="340.83,2.13 328.19,10.75 313.18,5.64 310.83,-8.1 323.48,-16.73 338.48,-11.61 	"/>
	<polygon class="st0" points="323.48,-16.73 310.83,-8.1 295.83,-13.22 293.47,-26.96 306.12,-35.58 321.12,-30.47 	"/>
	<polygon class="st0" points="432.06,369.62 419.41,378.25 404.41,373.14 402.06,359.39 414.71,350.77 429.71,355.88 	"/>
	<polygon class="st267" points="414.71,350.77 402.06,359.39 387.05,354.28 384.7,340.54 397.35,331.91 412.35,337.03 	"/>
	<polygon class="st268" points="425,328.4 412.35,337.03 397.35,331.91 394.99,318.17 407.64,309.55 422.64,314.66 	"/>
	<polygon class="st269" points="407.64,309.55 394.99,318.17 379.99,313.06 377.64,299.32 390.28,290.69 405.29,295.81 	"/>
	<polygon class="st270" points="417.93,287.18 405.29,295.81 390.28,290.69 387.93,276.95 400.57,268.32 415.58,273.44 	"/>
	<polygon class="st271" points="400.57,268.32 387.93,276.95 372.93,271.84 370.57,258.09 383.22,249.47 398.22,254.58 	"/>
	<polygon class="st272" points="410.87,245.96 398.22,254.58 383.22,249.47 380.86,235.73 393.51,227.1 408.51,232.22 	"/>
	<polygon class="st273" points="393.51,227.1 380.86,235.73 365.86,230.61 363.51,216.87 376.15,208.24 391.16,213.36 	"/>
	<polygon class="st274" points="403.8,204.74 391.16,213.36 376.15,208.24 373.8,194.5 386.45,185.88 401.45,190.99 	"/>
	<polygon class="st275" points="386.45,185.88 373.8,194.5 358.8,189.39 356.44,175.65 369.09,167.02 384.09,172.14 	"/>
	<polygon class="st276" points="396.74,163.51 384.09,172.14 369.09,167.02 366.74,153.28 379.38,144.65 394.39,149.77 	"/>
	<polygon class="st277" points="379.38,144.65 366.74,153.28 351.74,148.16 349.38,134.42 362.03,125.8 377.03,130.91 	"/>
	<polygon class="st278" points="389.68,122.29 377.03,130.91 362.03,125.8 359.67,112.06 372.32,103.43 387.32,108.55 	"/>
	<polygon class="st279" points="372.32,103.43 359.67,112.06 344.67,106.94 342.32,93.2 354.96,84.57 369.96,89.69 	"/>
	<polygon class="st280" points="382.61,81.06 369.96,89.69 354.96,84.57 352.61,70.83 365.25,62.21 380.26,67.32 	"/>
	<polygon class="st281" points="365.25,62.21 352.61,70.83 337.61,65.72 335.25,51.98 347.9,43.35 362.9,48.47 	"/>
	<polygon class="st282" points="375.55,39.84 362.9,48.47 347.9,43.35 345.54,29.61 358.19,20.98 373.19,26.1 	"/>
	<polygon class="st283" points="358.19,20.98 345.54,29.61 330.54,24.5 328.19,10.75 340.83,2.13 355.83,7.24 	"/>
	<polygon class="st284" points="368.48,-1.38 355.83,7.24 340.83,2.13 338.48,-11.61 351.13,-20.24 366.13,-15.12 	"/>
	<polygon class="st0" points="351.13,-20.24 338.48,-11.61 323.48,-16.73 321.12,-30.47 333.77,-39.09 348.77,-33.98 	"/>
	<polygon class="st0" points="459.71,366.11 447.06,374.74 432.06,369.62 429.71,355.88 442.35,347.26 457.36,352.37 	"/>
	<polygon class="st285" points="442.35,347.26 429.71,355.88 414.71,350.77 412.35,337.03 425,328.4 440,333.52 	"/>
	<polygon class="st286" points="452.65,324.89 440,333.52 425,328.4 422.64,314.66 435.29,306.04 450.29,311.15 	"/>
	<polygon class="st287" points="435.29,306.04 422.64,314.66 407.64,309.55 405.29,295.81 417.93,287.18 432.93,292.29 	"/>
	<polygon class="st288" points="445.58,283.67 432.93,292.29 417.93,287.18 415.58,273.44 428.23,264.81 443.23,269.93 	"/>
	<polygon class="st289" points="428.23,264.81 415.58,273.44 400.57,268.32 398.22,254.58 410.87,245.96 425.87,251.07 	"/>
	<polygon class="st290" points="438.52,242.45 425.87,251.07 410.87,245.96 408.51,232.22 421.16,223.59 436.16,228.71 	"/>
	<polygon class="st291" points="421.16,223.59 408.51,232.22 393.51,227.1 391.16,213.36 403.8,204.74 418.81,209.85 	"/>
	<polygon class="st292" points="431.46,201.22 418.81,209.85 403.8,204.74 401.45,190.99 414.1,182.36 429.1,187.48 	"/>
	<polygon class="st293" points="414.1,182.36 401.45,190.99 386.45,185.88 384.09,172.14 396.74,163.51 411.74,168.63 	"/>
	<polygon class="st294" points="424.39,160 411.74,168.63 396.74,163.51 394.39,149.77 407.03,141.15 422.04,146.26 	"/>
	<polygon class="st295" points="407.03,141.15 394.39,149.77 379.38,144.65 377.03,130.91 389.68,122.29 404.68,127.4 	"/>
	<polygon class="st296" points="417.33,118.77 404.68,127.4 389.68,122.29 387.32,108.55 399.97,99.92 414.97,105.04 	"/>
	<polygon class="st297" points="399.97,99.92 387.32,108.55 372.32,103.43 369.96,89.69 382.61,81.06 397.61,86.18 	"/>
	<polygon class="st298" points="410.26,77.55 397.61,86.18 382.61,81.06 380.26,67.32 392.91,58.7 407.91,63.81 	"/>
	<polygon class="st299" points="392.91,58.7 380.26,67.32 365.25,62.21 362.9,48.47 375.55,39.84 390.55,44.96 	"/>
	<polygon class="st300" points="403.2,36.33 390.55,44.96 375.55,39.84 373.19,26.1 385.84,17.47 400.84,22.59 	"/>
	<polygon class="st301" points="385.84,17.47 373.19,26.1 358.19,20.98 355.83,7.24 368.48,-1.38 383.49,3.73 	"/>
	<polygon class="st302" points="396.13,-4.89 383.49,3.73 368.48,-1.38 366.13,-15.12 378.78,-23.75 393.78,-18.63 	"/>
	<polygon class="st0" points="378.78,-23.75 366.13,-15.12 351.13,-20.24 348.77,-33.98 361.42,-42.61 376.42,-37.49 	"/>
	<polygon class="st303" points="470,343.75 457.36,352.37 442.35,347.26 440,333.52 452.65,324.89 467.65,330.01 	"/>
	<polygon class="st0" points="480.3,321.38 467.65,330.01 452.65,324.89 450.29,311.15 462.94,302.53 477.94,307.64 	"/>
	<polygon class="st304" points="462.94,302.53 450.29,311.15 435.29,306.04 432.93,292.29 445.58,283.67 460.58,288.78 	"/>
	<polygon class="st305" points="473.23,280.16 460.58,288.78 445.58,283.67 443.23,269.93 455.88,261.3 470.88,266.42 	"/>
	<polygon class="st306" points="455.88,261.3 443.23,269.93 428.23,264.81 425.87,251.07 438.52,242.45 453.52,247.56 	"/>
	<polygon class="st307" points="466.17,238.93 453.52,247.56 438.52,242.45 436.16,228.71 448.81,220.08 463.81,225.19 	"/>
	<polygon class="st308" points="448.81,220.08 436.16,228.71 421.16,223.59 418.81,209.85 431.46,201.22 446.46,206.34 	"/>
	<polygon class="st309" points="459.1,197.71 446.46,206.34 431.46,201.22 429.1,187.48 441.75,178.85 456.75,183.97 	"/>
	<polygon class="st310" points="441.75,178.85 429.1,187.48 414.1,182.36 411.74,168.63 424.39,160 439.39,165.11 	"/>
	<polygon class="st311" points="452.04,156.49 439.39,165.11 424.39,160 422.04,146.26 434.68,137.63 449.69,142.75 	"/>
	<polygon class="st312" points="434.68,137.63 422.04,146.26 407.03,141.15 404.68,127.4 417.33,118.77 432.33,123.89 	"/>
	<polygon class="st313" points="444.98,115.26 432.33,123.89 417.33,118.77 414.97,105.04 427.62,96.41 442.62,101.53 	"/>
	<polygon class="st314" points="427.62,96.41 414.97,105.04 399.97,99.92 397.61,86.18 410.26,77.55 425.26,82.67 	"/>
	<polygon class="st315" points="437.91,74.04 425.26,82.67 410.26,77.55 407.91,63.81 420.56,55.19 435.56,60.3 	"/>
	<polygon class="st316" points="420.56,55.19 407.91,63.81 392.91,58.7 390.55,44.96 403.2,36.33 418.2,41.45 	"/>
	<polygon class="st317" points="430.85,32.82 418.2,41.45 403.2,36.33 400.84,22.59 413.49,13.96 428.49,19.08 	"/>
	<polygon class="st318" points="413.49,13.96 400.84,22.59 385.84,17.47 383.49,3.73 396.13,-4.89 411.14,0.22 	"/>
	<polygon class="st319" points="423.78,-8.4 411.14,0.22 396.13,-4.89 393.78,-18.63 406.42,-27.26 421.43,-22.14 	"/>
	<polygon class="st0" points="476.46,216.57 463.81,225.19 448.81,220.08 446.46,206.34 459.1,197.71 474.11,202.83 	"/>
	<polygon class="st320" points="469.4,175.35 456.75,183.97 441.75,178.85 439.39,165.11 452.04,156.49 467.04,161.61 	"/>
	<polygon class="st0" points="479.69,152.98 467.04,161.61 452.04,156.49 449.69,142.75 462.33,134.12 477.34,139.24 	"/>
	<polygon class="st321" points="462.33,134.12 449.69,142.75 434.68,137.63 432.33,123.89 444.98,115.26 459.98,120.38 	"/>
	<polygon class="st322" points="472.63,111.75 459.98,120.38 444.98,115.26 442.62,101.53 455.27,92.9 470.27,98.01 	"/>
	<polygon class="st323" points="455.27,92.9 442.62,101.53 427.62,96.41 425.26,82.67 437.91,74.04 452.91,79.16 	"/>
	<polygon class="st324" points="465.56,70.53 452.91,79.16 437.91,74.04 435.56,60.3 448.2,51.68 463.21,56.79 	"/>
	<polygon class="st325" points="448.2,51.68 435.56,60.3 420.56,55.19 418.2,41.45 430.85,32.82 445.85,37.93 	"/>
	<polygon class="st326" points="458.5,29.31 445.85,37.93 430.85,32.82 428.49,19.08 441.14,10.45 456.14,15.57 	"/>
	<polygon class="st327" points="441.14,10.45 428.49,19.08 413.49,13.96 411.14,0.22 423.78,-8.4 438.79,-3.29 	"/>
	<polygon class="st0" points="451.44,-11.91 438.79,-3.29 423.78,-8.4 421.43,-22.14 434.08,-30.77 449.08,-25.66 	"/>
	<polygon class="st0" points="475.85,48.17 463.21,56.79 448.2,51.68 445.85,37.93 458.5,29.31 473.5,34.42 	"/>
	<polygon class="st328" points="468.79,6.94 456.14,15.57 441.14,10.45 438.79,-3.29 451.44,-11.91 466.43,-6.8 	"/>
	<polygon class="st0" points="479.08,-15.42 466.43,-6.8 451.44,-11.91 449.08,-25.66 461.73,-34.28 476.73,-29.17 	"/>
</g>
<g id="frame">
	<polyline class="st329" points="355.62,154.51 355.62,301 39.77,301 39.77,154.28 	"/>
	<polyline class="st329" points="39.77,113.89 39.77,34 355.62,34 355.62,113.89 	"/>
</g>
<g id="text_content">
	<text transform="matrix(0.9992 0 0 1 44.9268 151.3516)" class="st330 st331 st332 st333">Wonderfund</text>
</g>
<rect x="395" y="178.15" class="st334" width="44" height="4.85"/>
</svg>
